<?xml version="1.0" encoding="iso-8859-1"?>
<!-- Generator: Adobe Illustrator 21.0.0, SVG Export Plug-In . SVG Version: 6.00 Build 0)  -->
<svg version="1.1" id="&#x421;&#x43B;&#x43E;&#x439;_1"
	 xmlns="http://www.w3.org/2000/svg" xmlns:xlink="http://www.w3.org/1999/xlink" x="0px" y="0px" viewBox="0 0 291.688 44.394"
	 style="enable-background:new 0 0 291.688 44.394;" xml:space="preserve">
<g>
	<path style="fill-rule:evenodd;clip-rule:evenodd;fill:#00793a;" d="M16.372,33.641c4.758,2.421,10.712,1.688,14.743-2.206
		l-9.078-9.078l9.239-9.239l0.884-0.884l2.03-2.03v0.001l0.002,0.002c1.727,1.727,3.082,3.823,3.939,6.16l-5.99,5.99l5.903,5.904
		c-0.86,2.245-2.183,4.261-3.853,5.931c-3.07,3.069-7.309,4.969-11.988,4.97v-0.002h-0.004h-0.002v0.002l-0.152-0.001l-0.152-0.002
		h0l-0.151-0.003h0l-0.15-0.005H21.59l-0.15-0.006h-0.001l-0.15-0.007h-0.001l-0.149-0.008h-0.001l-0.149-0.009h-0.001l-0.149-0.011
		H20.84l-0.148-0.012h-0.001l-0.147-0.014h-0.001l-0.147-0.015h-0.001l-0.147-0.016h-0.001L20.1,39.031h-0.001l-0.145-0.019h-0.002
		l-0.146-0.02l-0.147-0.022l-0.146-0.023l-0.145-0.024L19.225,38.9l-0.002,0l-0.145-0.027l-0.144-0.027l-0.144-0.029l-0.143-0.029
		l-0.143-0.031l-0.14-0.031l-0.003-0.001l-0.139-0.033L18.22,38.69l-0.139-0.034l-0.003-0.001l-0.139-0.035l-0.003-0.001
		L17.8,38.584l-0.003-0.001l-0.137-0.038l-0.003-0.001l-0.139-0.039l-0.139-0.041l-0.135-0.041l-0.003-0.001l-0.135-0.042
		l-0.003-0.001l-0.134-0.043l-0.003-0.001l-0.134-0.044l-0.003-0.001l-0.133-0.045l-0.003-0.001l-0.136-0.048l-0.135-0.048
		l-0.134-0.05l-0.134-0.051l-0.134-0.052l-0.134-0.053l-0.128-0.052l-0.004-0.002l-0.128-0.053l-0.004-0.002l-0.127-0.054
		l-0.004-0.002l-0.132-0.057l-0.13-0.059l-0.13-0.059l-0.125-0.059l-0.004-0.002l-0.125-0.059l-0.004-0.002l-0.128-0.063
		l-0.128-0.064l-0.122-0.062l-0.005-0.002l-0.122-0.063l-0.005-0.002l-0.121-0.065l-0.005-0.002l-0.12-0.065l-0.005-0.003
		l-0.124-0.069l-0.124-0.069l-0.123-0.071l-0.123-0.072l-0.117-0.07l-0.005-0.003l-0.117-0.07L16.372,33.641L16.372,33.641z
		 M35.059,9.334L37.893,6.5L37.894,6.5c8.668,8.667,8.668,22.725,0,31.393c-7.709,7.709-19.681,8.561-28.333,2.558l2.892-2.892
		l0.128,0.08l0.005,0.003l0.128,0.079l0.005,0.003l0.13,0.078l0.135,0.08l0.004,0.003l0.132,0.076l0.004,0.003l0.132,0.075
		l0.099,0.055l0.004,0.003l0.017,0.009l0.004,0.003l0.004,0.003l0.004,0.003l0.006,0.003l0.012,0.006l0.004,0.003l0.047,0.026
		l0.004,0.003l0.069,0.038l0.004,0.002l0.135,0.072l0.004,0.002l0.135,0.071l0.14,0.072l0.14,0.071l0.004,0.002l0.137,0.067
		l0.004,0.002l0.137,0.067l0.143,0.067l0.143,0.066c0.096,0.044,0.192,0.086,0.289,0.128l0.145,0.062l0.146,0.062l0.003,0.001
		l0.143,0.058l0.003,0.001l0.143,0.058l0.003,0.001l0.145,0.056l0.003,0.001l0.145,0.055l0.003,0.001l0.146,0.054l0.003,0.001
		l0.146,0.052l0.003,0.001l0.147,0.051l0.003,0.001l0.147,0.05l0.003,0.001l0.148,0.049l0.003,0.001l0.149,0.048l0.152,0.047
		l0.153,0.046l0.003,0.001l0.151,0.043l0.003,0.001l0.151,0.043l0.003,0.001l0.152,0.041l0.003,0.001l0.153,0.04l0.003,0.001
		l0.153,0.038l0.156,0.038l0.157,0.037l0.158,0.036l0.158,0.034l0.158,0.033l0.159,0.031l0.16,0.03l0.16,0.028l0.001,0l0.159,0.027
		l0.001,0l0.159,0.025l0.001,0l0.16,0.024l0.001,0l0.16,0.022l0.001,0l0.161,0.021l0.001,0l0.161,0.02l0.001,0l0.162,0.018l0.001,0
		l0.162,0.017l0.001,0l0.163,0.015l0.001,0l0.163,0.014l0.001,0l0.164,0.013l0.165,0.011l0.166,0.01l0.166,0.009l0.167,0.007
		l0.167,0.005l0.168,0.004l0.168,0.003l0.168,0.001v0.002h0.002h0.004v-0.002c5.022-0.001,9.568-2.037,12.858-5.326
		c3.29-3.29,5.327-7.838,5.327-12.861h0.002v-0.002v-0.004h-0.002c-0.001-5.022-2.037-9.568-5.326-12.858L35.059,9.334L35.059,9.334
		L35.059,9.334z"/>
	<path style="fill-rule:evenodd;clip-rule:evenodd;fill:#6B6966;" d="M6.501,6.5c7.708-7.708,19.678-8.561,28.33-2.559l-2.892,2.892
		l-0.126-0.08l-0.007-0.004L31.68,6.671l-0.007-0.004L31.546,6.59l-0.007-0.004l-0.128-0.075l-0.007-0.004l-0.129-0.075
		l-0.007-0.004l-0.13-0.074l-0.006-0.004l-0.131-0.073l-0.006-0.003l-0.131-0.072l-0.006-0.003l-0.132-0.071L30.72,6.125
		l-0.133-0.07l-0.006-0.003l-0.134-0.069L30.442,5.98l-0.134-0.068l-0.236-0.116l-0.047-0.023l-0.006-0.003l-0.137-0.065
		l-0.006-0.003l-0.137-0.064l-0.005-0.003l-0.139-0.062l-0.005-0.002L29.45,5.512L29.445,5.51l-0.14-0.06L29.3,5.448l-0.14-0.059
		l-0.005-0.002l-0.142-0.058l-0.005-0.002l-0.147-0.059l-0.143-0.056l-0.005-0.002L28.57,5.156l-0.005-0.002
		c-0.098-0.037-0.196-0.072-0.294-0.107l-0.005-0.001l-0.146-0.051l-0.005-0.001l-0.146-0.05l-0.004-0.001l-0.147-0.048
		l-0.004-0.001l-0.147-0.047l-0.004-0.001l-0.149-0.046L27.51,4.797l-0.149-0.045l-0.004-0.001l-0.15-0.043l-0.004-0.001
		l-0.151-0.042L27.05,4.663l-0.151-0.041l-0.004-0.001l-0.151-0.04L26.74,4.581l-0.152-0.038l-0.004-0.001l-0.153-0.037
		l-0.003-0.001l-0.154-0.036L26.27,4.467l-0.154-0.035l-0.003-0.001l-0.155-0.033l-0.003-0.001L25.8,4.366l-0.003-0.001
		l-0.156-0.031l-0.003-0.001l-0.156-0.029l-0.003,0l-0.158-0.028l-0.003,0L25.161,4.25l-0.003,0l-0.158-0.025l-0.003,0L24.84,4.199
		l-0.002,0l-0.16-0.022l-0.002,0l-0.16-0.021l-0.002,0l-0.161-0.02H24.35l-0.161-0.019h-0.002L24.026,4.1h-0.002l-0.162-0.016H23.86
		L23.697,4.07h-0.001l-0.163-0.013h-0.001l-0.164-0.011h-0.001l-0.164-0.01h-0.001l-0.165-0.008h-0.001l-0.165-0.007h-0.001
		l-0.167-0.005h0l-0.167-0.004L22.368,4.01L22.2,4.009V4.006h-0.002h-0.004v0.002C17.172,4.01,12.626,6.045,9.336,9.334
		c-3.29,3.29-5.327,7.838-5.327,12.861H4.007v0.002v0.004h0.002l0.002,0.235l0.005,0.234l0.008,0.233l0.01,0.233l0.014,0.232
		l0.016,0.232l0.019,0.23l0.022,0.23l0.025,0.228l0.027,0.228l0.031,0.227l0.033,0.227l0.036,0.225l0.039,0.224l0.041,0.223
		l0.044,0.223l0.047,0.221l0.05,0.221l0.052,0.219l0.055,0.219l0.058,0.217L4.7,27.18l0.063,0.215l0.065,0.214l0.068,0.213
		l0.07,0.212l0.073,0.211l0.075,0.209l0.078,0.208l0.08,0.207v0l0.083,0.206v0l0.084,0.205v0l0.088,0.203v0l0.09,0.202v0l0.092,0.2
		v0l0.094,0.199v0l0.097,0.198v0l0.099,0.197v0l0.102,0.195v0l0.103,0.194l0,0l0.106,0.192l0,0l0.108,0.191l0,0l0.11,0.189l0,0
		l0.113,0.188l0,0l0.114,0.186l0,0l0.117,0.185l0,0l0.119,0.183l0,0l0.121,0.182l0,0l0.123,0.18l0,0l0.125,0.179l0,0l0.127,0.177
		l0,0l0.13,0.176l0,0l0.131,0.174l0,0.001l0.134,0.172l0,0.001l0.136,0.17l0,0.001l0.138,0.169l0.001,0.001L8.3,33.935l0.001,0.001
		l0.141,0.165l0.001,0.001l0.143,0.164l0.001,0.001l0.145,0.162l0.001,0.001l0.147,0.159l0.001,0.001l0.149,0.158l0.001,0.001
		l0.151,0.156l0.001,0.001l0.153,0.155L6.5,37.893C-2.167,29.225-2.167,15.168,6.501,6.5L6.501,6.5z M31.047,7.726l-3.025,3.025
		C23.2,8.296,17.151,9.085,13.119,13.118c-5.013,5.013-5.013,13.144-0.001,18.157l-2.914,2.914l-0.143-0.145l-0.001-0.001
		l-0.14-0.145l-0.001-0.001l-0.139-0.147L9.78,33.749L9.643,33.6l-0.001-0.001l-0.135-0.151l-0.001-0.001l-0.133-0.152l-0.001-0.001
		L9.24,33.141L9.239,33.14L9.11,32.984l-0.001-0.001l-0.128-0.157L8.98,32.825l-0.126-0.159l-0.001-0.001l-0.124-0.16l-0.001-0.001
		l-0.122-0.162l-0.001-0.001l-0.12-0.163l-0.001-0.001l-0.118-0.164l-0.001-0.001l-0.117-0.166l-0.001-0.001l-0.114-0.167
		l-0.001-0.001L8.02,31.509l-0.001-0.001l-0.111-0.171l-0.001-0.001l-0.109-0.172l-0.001-0.001L7.692,30.99L7.691,30.99
		l-0.105-0.175l-0.001-0.001l-0.103-0.176l0-0.001L7.382,30.46l0-0.001l-0.098-0.179l0-0.001L7.186,30.1l0-0.001l-0.094-0.181
		l0-0.001l-0.092-0.183l0-0.001l-0.09-0.184l0-0.001L6.82,29.363l0-0.001l-0.086-0.186l0-0.001l-0.083-0.188l0-0.001L6.57,28.799
		l0-0.001l-0.079-0.19l0-0.001l-0.077-0.191l0-0.001l-0.074-0.193l0-0.001l-0.073-0.193l0-0.001l-0.07-0.195l0-0.001l-0.068-0.196
		l0-0.001l-0.065-0.197l0-0.001l-0.063-0.198l0-0.001l-0.06-0.199l0-0.001l-0.058-0.2l0-0.001l-0.056-0.201l0-0.001l-0.054-0.202
		l0,0l-0.05-0.204l0,0l-0.049-0.204v0l-0.046-0.205v0l-0.044-0.206v0L5.54,25.409v0l-0.039-0.208v0l-0.036-0.209v0l-0.034-0.209v0
		l-0.031-0.211v0l-0.028-0.211v0l-0.026-0.212l-0.024-0.213l-0.02-0.214l-0.018-0.215l-0.015-0.216l-0.013-0.216l-0.009-0.217
		l-0.007-0.217L5.237,22.42l-0.002-0.219h0.002v-0.004v-0.002H5.235c0-4.681,1.901-8.921,4.971-11.991
		c3.07-3.069,7.309-4.969,11.987-4.97v0.002h0.004H22.2V5.235l0.151,0.001l0.151,0.002h0.001l0.15,0.003h0.001l0.151,0.005h0.001
		l0.149,0.006h0.001l0.15,0.007h0.001l0.149,0.009h0.001l0.149,0.009h0.001l0.148,0.011h0.001l0.148,0.012h0.001l0.147,0.014h0.001
		l0.147,0.015l0.002,0l0.146,0.016l0.002,0l0.146,0.017l0.002,0l0.145,0.018l0.002,0l0.145,0.019l0.002,0l0.144,0.021l0.002,0
		l0.144,0.022l0.002,0l0.143,0.024l0.002,0.001l0.143,0.024l0.002,0.001c0.192,0.034,0.383,0.071,0.573,0.111l0.003,0.001
		l0.139,0.031l0.003,0.001l0.139,0.031l0.003,0.001l0.138,0.033l0.003,0.001l0.139,0.034l0.003,0.001l0.137,0.035l0.003,0.001
		l0.137,0.036l0.004,0.001l0.136,0.037l0.004,0.001l0.136,0.038l0.004,0.001l0.135,0.04l0.004,0.001l0.134,0.041l0.004,0.001
		l0.133,0.042l0.004,0.001l0.134,0.043l0.004,0.001l0.132,0.044l0.005,0.001l0.132,0.045l0.005,0.002l0.136,0.047l0.131,0.046
		l0.005,0.002c0.09,0.033,0.18,0.066,0.269,0.101l0.128,0.05l0.005,0.002l0.128,0.05l0.005,0.002l0.127,0.051l0.005,0.002
		c0.177,0.072,0.352,0.148,0.526,0.227l0.124,0.056l0.006,0.003l0.124,0.057l0.006,0.003l0.123,0.059l0.006,0.003
		c0.128,0.062,0.256,0.125,0.382,0.19l0.12,0.063l0.006,0.003l0.119,0.063l0.006,0.003l0.119,0.064l0.007,0.003l0.118,0.065
		l0.007,0.004l0.117,0.066l0.007,0.004l0.116,0.067l0.007,0.004l0.116,0.068l0.007,0.004l0.115,0.068l0.007,0.004L31.047,7.726
		L31.047,7.726z"/>
	<path style="fill:#00793a;" d="M84.47,15.107l-8.6,3.23c-0.979-1.566-2.251-2.349-3.817-2.349c-1.371,0-2.524,0.608-3.461,1.825
		c-0.937,1.217-1.405,2.664-1.405,4.342s0.482,3.125,1.447,4.342c0.965,1.217,2.104,1.825,3.419,1.825
		c0.839,0,1.573-0.21,2.203-0.629c0.629-0.42,1.07-0.993,1.321-1.72h-4.279v-6.46h15.103v2.685c0,2.601-0.657,4.992-1.972,7.174
		c-1.314,2.181-3.09,3.908-5.328,5.181c-2.237,1.273-4.67,1.909-7.299,1.909c-2.629,0-5.062-0.636-7.3-1.909
		c-2.237-1.272-4.014-3-5.328-5.181c-1.314-2.182-1.972-4.573-1.972-7.174c0-2.601,0.657-4.992,1.972-7.174
		c1.314-2.181,3.091-3.908,5.328-5.181c2.238-1.273,4.671-1.909,7.3-1.909c2.685,0,5.146,0.643,7.383,1.93
		C81.421,11.149,83.183,12.897,84.47,15.107L84.47,15.107z M88.623,35.622V16.45h9.02v2.685c1.426-2.182,3.482-3.272,6.167-3.272
		h0.461v9.313c-0.867-0.503-1.832-0.755-2.895-0.755c-0.951,0-1.755,0.287-2.412,0.86c-0.657,0.573-0.986,1.489-0.986,2.748v7.593
		H88.623L88.623,35.622z M119.416,23.414c-0.084-0.699-0.321-1.245-0.713-1.636c-0.392-0.392-0.895-0.587-1.51-0.587
		c-0.503,0-0.965,0.21-1.384,0.629c-0.419,0.42-0.685,0.951-0.797,1.594H119.416L119.416,23.414z M127.554,29.874
		c-0.727,2.07-2.028,3.664-3.902,4.783c-1.874,1.119-4.125,1.678-6.754,1.678c-3.076,0-5.719-1-7.929-3
		c-2.21-2-3.314-4.426-3.314-7.279c0-2.853,1.091-5.279,3.272-7.279c2.182-2,4.838-3,7.971-3c2.014,0,3.888,0.461,5.622,1.384
		s3.104,2.167,4.111,3.734c1.007,1.566,1.51,3.286,1.51,5.16v1.552h-13.215c0,0.951,0.217,1.727,0.65,2.328
		c0.434,0.602,0.972,0.902,1.615,0.902c0.755,0,1.384-0.517,1.888-1.552L127.554,29.874L127.554,29.874z M143.202,23.414
		c-0.084-0.699-0.321-1.245-0.713-1.636c-0.391-0.392-0.895-0.587-1.51-0.587c-0.503,0-0.965,0.21-1.384,0.629
		c-0.419,0.42-0.685,0.951-0.797,1.594H143.202L143.202,23.414z M151.341,29.874c-0.727,2.07-2.028,3.664-3.902,4.783
		c-1.874,1.119-4.125,1.678-6.754,1.678c-3.076,0-5.719-1-7.929-3c-2.21-2-3.314-4.426-3.314-7.279c0-2.853,1.091-5.279,3.272-7.279
		c2.182-2,4.838-3,7.971-3c2.014,0,3.888,0.461,5.622,1.384c1.734,0.923,3.104,2.167,4.111,3.734c1.007,1.566,1.51,3.286,1.51,5.16
		v1.552h-13.215c0,0.951,0.217,1.727,0.65,2.328c0.434,0.602,0.972,0.902,1.615,0.902c0.755,0,1.384-0.517,1.888-1.552
		L151.341,29.874L151.341,29.874z M153.858,35.622V16.45h9.02v2.643c0.643-0.839,1.454-1.587,2.433-2.245
		c0.979-0.657,2.154-0.986,3.524-0.986h0.252c1.762,0,3.272,0.552,4.531,1.657c1.259,1.105,1.888,2.846,1.888,5.223v12.879h-9.314
		v-9.691c0-0.811-0.077-1.426-0.231-1.846c-0.154-0.42-0.538-0.629-1.154-0.629c-0.615,0-1.035,0.217-1.259,0.65
		c-0.224,0.433-0.336,1.042-0.336,1.825v9.691H153.858L153.858,35.622z M176.361,33.356l3.146-7.635
		c0.028,0.028,0.336,0.238,0.923,0.629c0.587,0.392,1.202,0.762,1.846,1.112c0.643,0.35,1.314,0.636,2.014,0.86
		c0.699,0.224,1.328,0.336,1.888,0.336c1.51,0,2.265-0.559,2.265-1.678c0-1.091-1.161-2.118-3.482-3.083
		c-2.322-0.965-4.09-1.923-5.307-2.874c-1.217-0.951-1.825-2.755-1.825-5.412c0-1.874,0.909-3.629,2.727-5.265
		c1.818-1.636,4.615-2.454,8.39-2.454c1.706,0,3.182,0.175,4.426,0.524c1.245,0.35,2.902,1,4.971,1.951l-2.937,7.048
		c-0.643-0.475-1.426-0.951-2.349-1.426c-0.923-0.475-1.986-0.713-3.188-0.713c-1.454,0-2.182,0.461-2.182,1.384
		c0,0.643,0.594,1.251,1.783,1.825c1.189,0.573,2.538,1.202,4.048,1.888c1.51,0.685,2.762,1.559,3.755,2.622
		c0.993,1.063,1.489,2.503,1.489,4.321c0,2.433-0.979,4.531-2.937,6.293c-1.958,1.762-4.908,2.643-8.852,2.643
		C183.451,36.251,179.913,35.286,176.361,33.356L176.361,33.356z M209.42,33.314v10.53h-9.146V16.45h8.852v2.559
		c1.174-1.23,2.125-2.063,2.852-2.496c0.727-0.433,1.958-0.65,3.692-0.65c2.098,0,3.811,0.979,5.139,2.937
		c1.329,1.958,1.993,4.349,1.993,7.174c0,2.881-0.671,5.314-2.014,7.3c-1.342,1.986-3.244,2.979-5.706,2.979
		C212.846,36.251,210.958,35.272,209.42,33.314L209.42,33.314z M211.475,23.33c-0.671,0-1.244,0.28-1.72,0.839
		c-0.475,0.559-0.713,1.231-0.713,2.013c0,0.783,0.245,1.454,0.734,2.014c0.49,0.56,1.056,0.839,1.699,0.839
		c0.671,0,1.245-0.273,1.72-0.818c0.476-0.545,0.713-1.223,0.713-2.035c0-0.811-0.224-1.489-0.671-2.034
		C212.79,23.603,212.202,23.33,211.475,23.33L211.475,23.33z M238.241,35.622v-2.853c-0.811,1.035-1.692,1.881-2.643,2.538
		c-0.951,0.657-2.139,0.986-3.566,0.986c-1.371,0-2.65-0.399-3.839-1.196c-1.189-0.797-2.14-1.93-2.853-3.398
		c-0.713-1.468-1.07-3.181-1.07-5.139c0-2.936,0.615-5.454,1.846-7.551c1.231-2.098,3.188-3.146,5.873-3.146
		c1.231,0,2.328,0.273,3.293,0.818c0.965,0.545,1.853,1.322,2.664,2.328V16.45h8.894v19.172H238.241L238.241,35.622z
		 M235.598,23.372c-0.671,0-1.244,0.266-1.72,0.797c-0.476,0.531-0.713,1.16-0.713,1.888c0,0.699,0.238,1.321,0.713,1.867
		c0.475,0.545,1.049,0.818,1.72,0.818c0.699,0,1.28-0.266,1.741-0.797c0.462-0.531,0.692-1.16,0.692-1.888
		c0-0.783-0.231-1.426-0.692-1.93C236.877,23.624,236.297,23.372,235.598,23.372L235.598,23.372z M249.148,35.622V16.45h9.02v2.685
		c1.426-2.182,3.482-3.272,6.167-3.272h0.461v9.313c-0.867-0.503-1.832-0.755-2.895-0.755c-0.951,0-1.755,0.287-2.412,0.86
		c-0.657,0.573-0.986,1.489-0.986,2.748v7.593H249.148L249.148,35.622z M267.272,35.622V6.884h9.187v16.907l3.944-7.342h10.865
		l-6.754,9.229l7.174,9.943h-11.033l-4.195-7.174v7.174H267.272L267.272,35.622z"/>
</g>
</svg>
