<svg width="70" height="70" viewBox="0 0 70 70" fill="none" xmlns="http://www.w3.org/2000/svg">
<g clip-path="url(#clip0_50_4363)">
<path d="M11.9596 22.8243C7.85571 22.8243 4.26557 19.8822 3.42375 15.8369C2.94713 13.5368 3.38661 11.1932 4.66173 9.2297C5.93684 7.26625 7.89904 5.91988 10.1769 5.43993C10.7711 5.31526 11.3716 5.25293 11.972 5.25293C16.0759 5.25293 19.666 8.18876 20.5016 12.2403C20.9783 14.5341 20.5388 16.8841 19.2637 18.8475C17.9886 20.811 16.0264 22.1573 13.7485 22.6373C13.1543 22.762 12.5538 22.8243 11.9534 22.8243H11.9596Z" fill="white"/>
<path d="M11.9597 24.0709C7.27395 24.0709 3.17624 20.7174 2.21062 16.0924C1.66591 13.4682 2.16729 10.7879 3.6281 8.54399C5.08892 6.30005 7.32347 4.76045 9.92941 4.21193C10.6041 4.06857 11.2912 4 11.9783 4C16.664 4 20.7617 7.35346 21.7211 11.9785C22.2659 14.6027 21.7645 17.2767 20.3098 19.5206C18.8552 21.7646 16.6145 23.298 14.0085 23.8465C13.3338 23.9898 12.6468 24.0584 11.9597 24.0584V24.0709ZM11.9783 6.49328C11.4645 6.49328 10.9445 6.54937 10.437 6.65534C8.48097 7.06673 6.79733 8.21987 5.70172 9.90906C4.60611 11.592 4.22852 13.6053 4.63706 15.5813C5.36127 19.0532 8.43765 21.5776 11.9597 21.5776C12.4735 21.5776 12.9872 21.5215 13.501 21.4155C15.457 21.0041 17.1406 19.851 18.2362 18.1618C19.3318 16.4726 19.7094 14.4593 19.3009 12.4896C18.5829 9.01148 15.5003 6.49328 11.9783 6.49328Z" fill="#323846"/>
<path d="M12.8508 18.2866C10.5234 18.779 8.23314 17.2644 7.74414 14.9207C7.25514 12.577 8.75309 10.2707 11.0867 9.77832L12.8508 18.2866Z" fill="white"/>
<path d="M11.9657 19.6268C9.39071 19.6268 7.08188 17.8129 6.53098 15.1763C6.22767 13.7177 6.50622 12.2218 7.32328 10.9689C8.13416 9.71601 9.38452 8.86207 10.8329 8.55664L11.3405 10.9938C9.68163 11.3429 8.61078 12.9884 8.95741 14.6589C9.30405 16.3294 10.9382 17.4078 12.5971 17.0587L13.1046 19.5021C12.7209 19.5832 12.3433 19.6206 11.9657 19.6206V19.6268Z" fill="#323846"/>
<path d="M57.0344 22.8179C52.2248 22.8179 48.3066 18.8786 48.3066 14.0291C48.3066 9.17972 52.2187 5.24658 57.0344 5.24658C61.8501 5.24658 65.7621 9.18596 65.7621 14.0291C65.7621 18.8723 61.8501 22.8179 57.0344 22.8179Z" fill="white"/>
<path d="M57.0343 24.0646C51.5377 24.0646 47.0686 19.5643 47.0686 14.0292C47.0686 8.49413 51.5439 4 57.0343 4C62.5248 4 67 8.50036 67 14.0292C67 19.558 62.5309 24.0646 57.0343 24.0646ZM57.0343 6.49328C52.9057 6.49328 49.5446 9.8779 49.5446 14.0292C49.5446 18.1805 52.9057 21.5714 57.0343 21.5714C61.163 21.5714 64.5241 18.1867 64.5241 14.0292C64.5241 9.87166 61.163 6.49328 57.0343 6.49328Z" fill="#323846"/>
<path d="M54.317 17.4076C53.3451 16.6098 52.72 15.3943 52.72 14.0355C52.72 11.6419 54.6574 9.69092 57.0343 9.69092L54.317 17.4076Z" fill="white"/>
<path d="M53.5309 18.3738C52.2248 17.3017 51.4758 15.7247 51.4758 14.0355C51.4758 10.9501 53.9704 8.44434 57.0282 8.44434V10.9376C55.3321 10.9376 53.9518 12.3276 53.9518 14.0355C53.9518 14.9705 54.3665 15.8494 55.0907 16.4415L53.5247 18.3738H53.5309Z" fill="#323846"/>
<path d="M28.8826 12.0469H40.1173C52.8685 12.0469 63.2179 22.4688 63.2179 35.3091V42.4337C63.2179 55.274 52.8685 65.6959 40.1173 65.6959H28.8826C16.1315 65.6959 5.78198 55.274 5.78198 42.4337V35.3091C5.78198 22.4688 16.1315 12.0469 28.8826 12.0469Z" fill="white"/>
<path d="M40.1172 66.9364H28.8826C15.4629 66.9364 4.54395 55.9411 4.54395 42.4275V35.303C4.54395 21.7956 15.4629 10.8003 28.8826 10.8003H40.1172C53.5369 10.8003 64.4497 21.7956 64.4497 35.3092V42.4337C64.4497 55.9473 53.5307 66.9426 40.1172 66.9426V66.9364ZM28.8826 13.2936C16.8309 13.2936 7.0199 23.1669 7.0199 35.3092V42.4337C7.0199 54.5697 16.8247 64.4494 28.8826 64.4494H40.1172C52.1689 64.4494 61.9737 54.576 61.9737 42.4337V35.3092C61.9737 23.1732 52.1689 13.2936 40.1172 13.2936H28.8826Z" fill="#323846"/>
<path d="M34.565 49.3964C33.7418 50.7801 32.6709 51.8522 31.4453 52.513V54.9065C31.4453 56.5957 32.8071 57.9608 34.4784 57.9608C36.1496 57.9608 37.5114 56.5957 37.5114 54.9065V52.4319C36.3539 51.7712 35.3449 50.7116 34.565 49.3901V49.3964Z" fill="#E2E6EE"/>
<path d="M34.1814 41.873V47.6013C34.1814 50.1819 32.1078 52.27 29.5452 52.27C26.9887 52.27 24.9089 50.1819 24.9089 47.6013L34.1752 41.873H34.1814Z" fill="white"/>
<path d="M29.5451 53.5166C26.3078 53.5166 23.6709 50.8613 23.6709 47.6013H26.1469C26.1469 49.49 27.6696 51.0234 29.5451 51.0234C31.4206 51.0234 32.9434 49.49 32.9434 47.6013V41.873H35.4193V47.6013C35.4193 50.8613 32.7824 53.5166 29.5451 53.5166Z" fill="#323846"/>
<path d="M34.8188 41.873V47.6013C34.8188 50.1819 36.8925 52.27 39.4551 52.27C42.0115 52.27 44.0913 50.1819 44.0913 47.6013L34.825 41.873H34.8188Z" fill="white"/>
<path d="M39.455 53.5166C36.2177 53.5166 33.5808 50.8613 33.5808 47.6013V41.873H36.0568V47.6013C36.0568 49.49 37.5795 51.0234 39.455 51.0234C41.3305 51.0234 42.8533 49.49 42.8533 47.6013H45.3292C45.3292 50.8613 42.6923 53.5166 39.455 53.5166Z" fill="#323846"/>
<path d="M39.4426 40.3395C39.4426 42.2718 37.8828 43.8425 35.9639 43.8425H33.0361C31.111 43.8425 29.5574 42.2718 29.5574 40.3395C29.5574 38.4072 31.1172 36.8364 33.0361 36.8364H35.9639C37.8828 36.8364 39.4426 38.4072 39.4426 40.3395Z" fill="white"/>
<path d="M35.9638 45.0892H33.036C30.4363 45.0892 28.3193 42.9575 28.3193 40.3395C28.3193 37.7216 30.4363 35.5898 33.036 35.5898H35.9638C38.5636 35.5898 40.6805 37.7216 40.6805 40.3395C40.6805 42.9575 38.5636 45.0892 35.9638 45.0892ZM33.036 38.0831C31.7981 38.0831 30.7953 39.0929 30.7953 40.3395C30.7953 41.5862 31.7981 42.5959 33.036 42.5959H35.9638C37.2018 42.5959 38.2046 41.5862 38.2046 40.3395C38.2046 39.0929 37.2018 38.0831 35.9638 38.0831H33.036Z" fill="#323846"/>
<path d="M13.0365 27.8297C8.82123 33.1964 8.21462 39.7912 11.6872 42.5587C15.1597 45.3262 21.3929 43.2132 25.6082 37.8464C29.8235 32.4796 30.4301 25.8849 26.9576 23.1174C23.4851 20.3498 17.2519 22.4629 13.0365 27.8297Z" fill="#60C3D0"/>
<path d="M21.9995 33.4331C21.8138 33.4331 21.5786 33.3209 21.4919 33.0716C21.3929 32.7911 21.5352 32.4794 21.8138 32.3735C21.8695 32.3548 21.9376 32.3423 21.9933 32.3423C22.1852 32.3423 22.4142 32.4545 22.5008 32.7038C22.5999 32.9843 22.4575 33.296 22.1728 33.4019C22.1109 33.4269 22.049 33.4331 21.9871 33.4331H21.9995Z" fill="white"/>
<path d="M21.9995 31.0957C21.8014 31.0957 21.5971 31.1269 21.3991 31.2017C20.4768 31.5383 19.994 32.5605 20.3282 33.4955C20.5882 34.2248 21.2753 34.6798 21.9995 34.6798C22.1976 34.6798 22.4018 34.6486 22.5999 34.5738C23.5222 34.2372 24.005 33.215 23.6707 32.28C23.4108 31.5507 22.7237 31.0957 21.9933 31.0957H21.9995Z" fill="#323846"/>
<path d="M55.9634 27.8297C60.1787 33.1964 60.7853 39.7912 57.3128 42.5587C53.8403 45.3262 47.6071 43.2132 43.3918 37.8464C39.1765 32.4796 38.5698 25.8849 42.0424 23.1174C45.5149 20.3498 51.7481 22.4629 55.9634 27.8297Z" fill="#60C3D0"/>
<path d="M47.0004 33.4331C46.9385 33.4331 46.8766 33.4206 46.8209 33.4019C46.5361 33.3022 46.3938 32.9905 46.4928 32.7038C46.5795 32.4545 46.8147 32.3423 47.0004 32.3423C47.0623 32.3423 47.1242 32.3548 47.1861 32.3735C47.4646 32.4732 47.6132 32.7848 47.5141 33.0716C47.4275 33.3209 47.1923 33.4331 47.0066 33.4331H47.0004Z" fill="white"/>
<path d="M47.0005 31.0957C46.27 31.0957 45.5892 31.5507 45.3292 32.28C44.9949 33.2088 45.4777 34.2372 46.4 34.5738C46.5981 34.6486 46.8024 34.6798 47.0005 34.6798C47.7309 34.6798 48.4117 34.2248 48.6717 33.4955C49.006 32.5667 48.5232 31.5383 47.6009 31.2017C47.4028 31.1269 47.1985 31.0957 47.0005 31.0957Z" fill="#323846"/>
</g>
<defs>
<clipPath id="clip0_50_4363">
<rect width="65" height="62.9365" fill="white" transform="translate(2 4)"/>
</clipPath>
</defs>
</svg>
