<svg width="70" height="70" viewBox="0 0 70 70" fill="none" xmlns="http://www.w3.org/2000/svg">
<g clip-path="url(#clip0_50_4366)">
<path d="M18.7375 43.9497H16.4625C14.3086 43.9497 12.5625 45.6958 12.5625 47.8497V61.1747C12.5625 63.3286 14.3086 65.0747 16.4625 65.0747H18.7375C20.8914 65.0747 22.6375 63.3286 22.6375 61.1747V47.8497C22.6375 45.6958 20.8914 43.9497 18.7375 43.9497Z" fill="#FADA8F"/>
<path d="M18.7377 66.3749H16.4627C13.5962 66.3749 11.2627 64.0414 11.2627 61.1749V47.8499C11.2627 44.9834 13.5962 42.6499 16.4627 42.6499H18.7377C21.6042 42.6499 23.9377 44.9834 23.9377 47.8499V61.1749C23.9377 64.0414 21.6042 66.3749 18.7377 66.3749ZM16.4627 45.2499C15.0262 45.2499 13.8627 46.4134 13.8627 47.8499V61.1749C13.8627 62.6114 15.0262 63.7749 16.4627 63.7749H18.7377C20.1742 63.7749 21.3377 62.6114 21.3377 61.1749V47.8499C21.3377 46.4134 20.1742 45.2499 18.7377 45.2499H16.4627Z" fill="#323846"/>
<path d="M52.5373 43.9497H50.2623C48.1084 43.9497 46.3623 45.6958 46.3623 47.8497V61.1747C46.3623 63.3286 48.1084 65.0747 50.2623 65.0747H52.5373C54.6912 65.0747 56.4373 63.3286 56.4373 61.1747V47.8497C56.4373 45.6958 54.6912 43.9497 52.5373 43.9497Z" fill="#FADA8F"/>
<path d="M52.5375 66.3749H50.2625C47.396 66.3749 45.0625 64.0414 45.0625 61.1749V47.8499C45.0625 44.9834 47.396 42.6499 50.2625 42.6499H52.5375C55.404 42.6499 57.7375 44.9834 57.7375 47.8499V61.1749C57.7375 64.0414 55.404 66.3749 52.5375 66.3749ZM50.2625 45.2499C48.826 45.2499 47.6625 46.4134 47.6625 47.8499V61.1749C47.6625 62.6114 48.826 63.7749 50.2625 63.7749H52.5375C53.974 63.7749 55.1375 62.6114 55.1375 61.1749V47.8499C55.1375 46.4134 53.974 45.2499 52.5375 45.2499H50.2625Z" fill="#323846"/>
<path d="M58.875 58.8998V8.1998C58.875 6.0483 57.1265 4.2998 54.975 4.2998H14.025C11.8735 4.2998 10.125 6.0483 10.125 8.1998V58.8998H58.875Z" fill="white"/>
<path d="M60.1752 60.2H8.8252V8.2C8.8252 5.3335 11.1587 3 14.0252 3H54.9752C57.8417 3 60.1752 5.3335 60.1752 8.2V60.2ZM11.4252 57.6H57.5752V8.2C57.5752 6.7635 56.4117 5.6 54.9752 5.6H14.0252C12.5887 5.6 11.4252 6.7635 11.4252 8.2V57.6Z" fill="#323846"/>
<path d="M58.875 17.625H10.125V41.35H58.875V17.625Z" fill="white"/>
<path d="M60.1752 42.6502H8.8252V16.3252H60.1752V42.6502ZM11.4252 40.0502H57.5752V18.9252H11.4252V40.0502Z" fill="#323846"/>
<path d="M54.3248 10.2085H14.6748V14.323H54.3248V10.2085Z" fill="#FADA8F"/>
<path d="M59.8499 49.3447H9.1499V54.9997H59.8499V49.3447Z" fill="white"/>
<path d="M61.1501 56.2999H7.8501V48.0449H61.1501V56.2999ZM10.4501 53.6999H58.5501V50.6449H10.4501V53.6999Z" fill="#323846"/>
<path d="M35.8002 17.2998H33.2002V41.3498H35.8002V17.2998Z" fill="#323846"/>
<path d="M21.5781 45.4127C21.5781 46.2187 20.9216 46.8752 20.1156 46.8752H14.9156C14.1096 46.8752 13.4531 46.2187 13.4531 45.4127C13.4531 44.6067 14.1096 43.9502 14.9156 43.9502H20.1156C20.9216 43.9502 21.5781 44.6067 21.5781 45.4127Z" fill="#E2E6EE"/>
<path d="M55.5474 45.4127C55.5474 46.2187 54.8909 46.8752 54.0849 46.8752H48.8849C48.0789 46.8752 47.4224 46.2187 47.4224 45.4127C47.4224 44.6067 48.0789 43.9502 48.8849 43.9502H54.0849C54.8909 43.9502 55.5474 44.6067 55.5474 45.4127Z" fill="#E2E6EE"/>
<path d="M67 19.8999H62.125V32.4124H67V19.8999Z" fill="#FADA8F"/>
<path d="M64.8877 31.2747H62.2877V23.7997H58.3877V21.1997H64.8877V31.2747Z" fill="#323846"/>
<path d="M6.875 19.8999H2V32.4124H6.875V19.8999Z" fill="#FADA8F"/>
<path d="M6.7123 31.2747H4.1123V21.1997H10.6123V23.7997H6.7123V31.2747Z" fill="#323846"/>
<path d="M31.5751 25.4248H28.9751V38.4248H31.5751V25.4248Z" fill="#323846"/>
<path d="M29.3574 31.6526L20.2554 40.7515L22.0935 42.5903L31.1956 33.4914L29.3574 31.6526Z" fill="#323846"/>
<path d="M40.2396 25.4248H37.6396V38.4248H40.2396V25.4248Z" fill="#323846"/>
<path d="M39.857 31.6542L38.0186 33.4927L47.119 42.5931L48.9575 40.7547L39.857 31.6542Z" fill="#323846"/>
</g>
<defs>
<clipPath id="clip0_50_4366">
<rect width="65" height="63.375" fill="white" transform="translate(2 3)"/>
</clipPath>
</defs>
</svg>
