<svg width="70" height="70" viewBox="0 0 70 70" fill="none" xmlns="http://www.w3.org/2000/svg">
<g clip-path="url(#clip0_50_4362)">
<path d="M61.4373 53.9886H28.9881C26.9243 53.9886 25.4511 53.3801 24.6065 52.1759C23.4318 50.5027 24.035 48.4301 24.1874 47.9928L25.286 43.9175L27.7371 44.5766L26.5941 48.7978C26.4798 49.1273 26.2703 50.1287 26.6957 50.7245C27.1212 51.3266 28.1817 51.4534 28.9881 51.4534H61.4373V53.9886Z" fill="#323846"/>
<path d="M32.9061 58.1655C32.9061 60.1113 31.3249 61.6958 29.3691 61.6958C27.4132 61.6958 25.832 60.1113 25.832 58.1655C25.832 56.2198 27.4132 54.6353 29.3691 54.6353C31.3249 54.6353 32.9061 56.2134 32.9061 58.1655Z" fill="#B9BFCB"/>
<path d="M59.2591 58.1655C59.2591 60.1113 57.6779 61.6958 55.7221 61.6958C53.7662 61.6958 52.1851 60.1113 52.1851 58.1655C52.1851 56.2198 53.7662 54.6353 55.7221 54.6353C57.6779 54.6353 59.2591 56.2134 59.2591 58.1655Z" fill="#B9BFCB"/>
<path d="M64.2885 42.8148H23.7366L12.9921 15.2825L11.2776 14.6424L12.1666 12.2656L14.948 13.3051L16.1608 16.417L66.9937 23.1924L64.2885 42.8212V42.8148ZM25.4701 40.2796H62.0723L64.1298 25.3663L17.215 19.117L25.4765 40.286L25.4701 40.2796Z" fill="#323846"/>
<path d="M18.8183 23.6515L18.5396 26.1714L64.5777 31.2443L64.8565 28.7245L18.8183 23.6515Z" fill="#323846"/>
<path d="M22.1355 32.3577L21.9893 34.8887L63.2664 37.2642L63.4127 34.7332L22.1355 32.3577Z" fill="#323846"/>
<path d="M23.4442 18.1577L21.0112 18.8862L27.679 41.0685L30.1119 40.34L23.4442 18.1577Z" fill="#323846"/>
<path d="M29.7035 19.38L27.2393 19.9946L32.5289 41.1224L34.9931 40.5078L29.7035 19.38Z" fill="#323846"/>
<path d="M35.9594 19.9799L33.4634 20.4502L37.3788 41.1521L39.8748 40.6819L35.9594 19.9799Z" fill="#323846"/>
<path d="M42.164 21.1984L39.6458 21.5298L42.241 41.1787L44.7593 40.8474L42.164 21.1984Z" fill="#323846"/>
<path d="M48.5228 22.1463L45.9871 22.2944L47.0958 41.2001L49.6315 41.0519L48.5228 22.1463Z" fill="#323846"/>
<path d="M52.0762 22.7408L51.9695 41.2285L54.5095 41.2431L54.6162 22.7554L52.0762 22.7408Z" fill="#323846"/>
<path d="M58.4239 23.5754L56.8369 41.2192L59.3668 41.4459L60.9538 23.8021L58.4239 23.5754Z" fill="#323846"/>
<path d="M3.63183 13.0577C2.29195 12.5063 1.64423 10.9725 2.19669 9.62887C2.6031 8.64014 3.56197 8 4.6288 8C4.9717 8 5.30191 8.06338 5.62577 8.19648L13.1761 11.2768L11.506 16.2648L3.63183 13.0577Z" fill="#FADA8F"/>
<path d="M11.5951 11.9991L5.14337 9.3688C4.4512 9.08359 3.65743 9.4195 3.37168 10.1103C3.08592 10.8012 3.42248 11.5934 4.11464 11.8787L10.7315 14.5786L11.5951 11.9991Z" fill="#FADA8F"/>
</g>
<defs>
<clipPath id="clip0_50_4362">
<rect width="65" height="53.6956" fill="white" transform="translate(2 8)"/>
</clipPath>
</defs>
</svg>
