<svg width="30" height="30" viewBox="0 0 30 30" fill="none" xmlns="http://www.w3.org/2000/svg">
<path fill-rule="evenodd" clip-rule="evenodd" d="M21.775 17.9777C21.4034 17.7918 19.5767 16.8932 19.236 16.7692C18.8954 16.6453 18.6478 16.5833 18.4001 16.9552C18.1523 17.327 17.4403 18.1637 17.2236 18.4116C17.0068 18.6595 16.7901 18.6905 16.4185 18.5045C16.0469 18.3186 14.8498 17.9264 13.4306 16.6609C12.326 15.676 11.5803 14.4595 11.3635 14.0877C11.1468 13.7158 11.3405 13.5148 11.5265 13.3296C11.6936 13.1633 11.898 12.8958 12.0838 12.6789C12.2696 12.462 12.3315 12.307 12.4553 12.0592C12.5792 11.8113 12.5173 11.5943 12.4244 11.4084C12.3315 11.2225 11.5884 9.39426 11.2788 8.65052C10.9772 7.92626 10.6709 8.02427 10.4428 8.01287C10.2263 8.00211 9.97838 7.99983 9.73069 7.99983C9.48291 7.99983 9.08049 8.0928 8.73982 8.46459C8.39924 8.83646 7.43942 9.73517 7.43942 11.5634C7.43942 13.3916 8.77079 15.1579 8.95656 15.4058C9.14241 15.6538 11.5767 19.4056 15.3039 21.0145C16.1904 21.3972 16.8825 21.6257 17.4221 21.797C18.3122 22.0796 19.1223 22.0398 19.7624 21.9441C20.4763 21.8375 21.9607 21.0455 22.2704 20.1779C22.58 19.3102 22.58 18.5665 22.4871 18.4116C22.3943 18.2566 22.1466 18.1637 21.775 17.9777ZM14.9954 27.2315H14.9904C12.7725 27.2306 10.5973 26.6351 8.69965 25.5093L8.24834 25.2415L3.5704 26.4682L4.81906 21.9087L4.52509 21.4414C3.28791 19.4741 2.63453 17.2003 2.63543 14.8657C2.63812 8.0532 8.18275 2.51069 15.0003 2.51069C18.3016 2.51199 21.4048 3.79895 23.7384 6.13437C26.0719 8.4698 27.3563 11.5742 27.3551 14.8757C27.3523 21.6887 21.8078 27.2315 14.9954 27.2315ZM25.5144 4.35968C22.7069 1.54981 18.9732 0.00162958 14.9953 0C6.79892 0 0.128003 6.66831 0.124744 14.8647C0.123685 17.4848 0.808351 20.0424 2.10965 22.2966L0 30L7.88307 27.9329C10.0551 29.1172 12.5005 29.7412 14.9893 29.7423H14.9954C23.1911 29.7423 29.8625 23.0731 29.8658 14.8766C29.8674 10.9045 28.3221 7.16956 25.5144 4.35968Z" fill="#8AE2EE"/>
</svg>
