<svg width="32" height="32" viewBox="0 0 32 32" fill="none" xmlns="http://www.w3.org/2000/svg">
<path d="M13.8301 19.2592L19.2621 16.0002L13.8301 12.7412V19.2592Z" fill="#B9BFCB"/>
<path d="M16 0C7.164 0 0 7.163 0 16C0 24.837 7.164 32 16 32C24.836 32 32 24.836 32 16C32 7.164 24.836 0 16 0ZM24.688 16.701C24.688 18.201 24.514 19.701 24.514 19.701C24.514 19.701 24.344 20.979 23.824 21.54C23.163 22.278 22.423 22.282 22.083 22.326C19.651 22.512 16 22.518 16 22.518C16 22.518 11.482 22.474 10.092 22.332C9.705 22.255 8.838 22.277 8.176 21.54C7.655 20.978 7.486 19.701 7.486 19.701C7.486 19.701 7.312 18.202 7.312 16.701V15.295C7.312 13.795 7.486 12.296 7.486 12.296C7.486 12.296 7.656 11.018 8.176 10.455C8.837 9.716 9.577 9.712 9.917 9.67C12.348 9.482 15.996 9.482 15.996 9.482H16.004C16.004 9.482 19.652 9.482 22.083 9.67C22.422 9.712 23.163 9.716 23.824 10.454C24.345 11.017 24.514 12.295 24.514 12.295C24.514 12.295 24.688 13.795 24.688 15.295V16.701Z" fill="#B9BFCB"/>
</svg>
